<svg id="Layer_1" data-name="Layer 1" xmlns="http://www.w3.org/2000/svg" viewBox="0 0 512 512"><defs><style>.cls-1{fill:#a6aebd;}.cls-1,.cls-2,.cls-3,.cls-4,.cls-5{fill-rule:evenodd;}.cls-1,.cls-3,.cls-4{opacity:0.9;}.cls-2{fill:#3a4968;}.cls-3{fill:#f2f6f9;}.cls-4{fill:#9aa4b5;}.cls-5{fill:#7889a4;}</style></defs><title>logo</title><path class="cls-1" d="M406.77,218.58A238.17,238.17,0,0,0,267,33.51a238.38,238.38,0,0,0,56.11,401.38,238.16,238.16,0,0,0,83.68-216.31"/><path class="cls-2" d="M260.05,292.6a159.81,159.81,0,0,0-154.16-21.38,160,160,0,0,0,217.2,163.67,159.82,159.82,0,0,0-63-142.29"/><path class="cls-3" d="M386.13,211.69A238.17,238.17,0,0,0,229.6,40.53a238.39,238.39,0,0,0,93.49,394.36,238.2,238.2,0,0,0,63-223.2"/><path class="cls-4" d="M208.76,329.3a159.83,159.83,0,0,0-150,41.56,160,160,0,0,0,264.32,64A159.85,159.85,0,0,0,208.76,329.3"/><path class="cls-5" d="M452.39,242.34A238.17,238.17,0,0,0,356.82,31,238.34,238.34,0,0,0,323.5,51.64a238.37,238.37,0,0,1-.42,383.25A238.15,238.15,0,0,0,452.39,242.34"/></svg>