<?xml version="1.0" encoding="utf-8"?>
<!-- Generator: Adobe Illustrator 23.0.1, SVG Export Plug-In . SVG Version: 6.00 Build 0)  -->
<svg version="1.1" id="Layer_1" xmlns="http://www.w3.org/2000/svg" xmlns:xlink="http://www.w3.org/1999/xlink" x="0px" y="0px"
	 viewBox="0 0 1080 1920" style="enable-background:new 0 0 1080 1920;" xml:space="preserve">
<style type="text/css">
	.st0{fill:#FFFFFF;}
	.st1{display:none;}
	.st2{display:inline;fill:#33CC66;}
	.st3{display:inline;}
	.st4{fill:#33CC66;}
	.st5{fill:#333333;}
	.st6{display:none;fill:#33CC66;}
	.st7{display:none;fill:#999999;}
	.st8{clip-path:url(#SVGID_2_);}
	.st9{fill:none;stroke:#33CC66;stroke-width:4;stroke-miterlimit:10;}
</style>
<rect class="st0" width="1080" height="1920"/>
<rect class="st0" width="1080" height="1920"/>
<g class="st1">
	<path class="st2" d="M348.5,869.3h32.7c21.8,0,36.6,0.9,44.3,2.6c7.7,1.7,14,6,18.9,13c4.9,7,7.3,18.1,7.3,33.5
		c0,14-1.7,23.4-5.2,28.2c-3.4,4.8-10.2,7.7-20.3,8.7c9.2,2.3,15.3,5.4,18.5,9.2c3.1,3.8,5.1,7.4,5.9,10.6
		c0.8,3.2,1.2,12.1,1.2,26.6v47.4h-43v-59.7c0-9.6-0.8-15.6-2.3-17.9c-1.5-2.3-5.4-3.4-11.8-3.4v81h-46.3V869.3z M394.7,900v40
		c5.2,0,8.8-0.7,10.9-2.2c2.1-1.4,3.1-6.1,3.1-14v-9.9c0-5.7-1-9.4-3-11.2C403.7,900.9,400.1,900,394.7,900z"/>
	<g class="st3">
		<path class="st4" d="M471.1,906.1h18.3v7.3h-26.9v-44.1h8.6V906.1z"/>
		<path class="st4" d="M508.1,914c-4.6,0-8.3-1.4-11.1-4.2c-2.9-2.8-4.3-6.5-4.3-11.2v-0.8c0-3.1,0.6-5.9,1.8-8.4
			c1.2-2.5,2.9-4.4,5.1-5.7c2.2-1.3,4.7-2,7.6-2c4.3,0,7.6,1.3,10,4c2.4,2.7,3.7,6.5,3.7,11.4v3.4h-19.8c0.3,2,1.1,3.7,2.4,4.9
			c1.3,1.2,3.1,1.8,5.1,1.8c3.2,0,5.7-1.2,7.5-3.5l4.1,4.6c-1.2,1.8-2.9,3.1-5.1,4.1C513.1,913.5,510.7,914,508.1,914z M507.2,888.4
			c-1.6,0-3,0.6-4,1.7c-1,1.1-1.7,2.7-2,4.8h11.5v-0.7c0-1.8-0.5-3.3-1.5-4.3C510.3,888.9,508.9,888.4,507.2,888.4z"/>
		<path class="st4" d="M543.6,913.4c-0.4-0.7-0.7-1.7-0.8-2.8c-2,2.2-4.6,3.4-7.8,3.4c-3,0-5.6-0.9-7.6-2.6c-2-1.8-3-4-3-6.7
			c0-3.3,1.2-5.8,3.7-7.6c2.4-1.8,6-2.7,10.6-2.7h3.8v-1.8c0-1.4-0.4-2.6-1.1-3.4c-0.7-0.9-1.9-1.3-3.5-1.3c-1.4,0-2.5,0.3-3.3,1
			c-0.8,0.7-1.2,1.6-1.2,2.8h-8.3c0-1.8,0.6-3.5,1.7-5c1.1-1.5,2.7-2.7,4.7-3.6c2-0.9,4.3-1.3,6.8-1.3c3.8,0,6.9,1,9.1,2.9
			c2.2,1.9,3.4,4.6,3.4,8.1v13.5c0,2.9,0.4,5.2,1.2,6.7v0.5H543.6z M536.8,907.6c1.2,0,2.4-0.3,3.4-0.8c1-0.5,1.8-1.3,2.3-2.2v-5.3
			h-3.1c-4.2,0-6.4,1.4-6.6,4.3l0,0.5c0,1,0.4,1.9,1.1,2.6C534.5,907.3,535.5,907.6,536.8,907.6z"/>
		<path class="st4" d="M574.6,890.1c-1.1-0.2-2.1-0.2-3-0.2c-3.1,0-5.2,1.1-6.2,3.2v20.3h-8.3v-31.1h7.8l0.2,3.7
			c1.7-2.9,4-4.3,6.9-4.3c0.9,0,1.8,0.1,2.6,0.4L574.6,890.1z"/>
		<path class="st4" d="M586.2,882.3l0.3,3.6c2.2-2.8,5.2-4.2,8.9-4.2c3.3,0,5.7,1,7.4,2.9c1.6,1.9,2.4,4.8,2.5,8.7v20.1H597v-19.9
			c0-1.8-0.4-3-1.1-3.8c-0.8-0.8-2-1.2-3.8-1.2c-2.3,0-4.1,1-5.3,3v21.9h-8.3v-31.1H586.2z"/>
		<path class="st4" d="M653.2,902.1l4.1-19.8h8l-7.9,31.1h-7l-5.9-19.6l-5.9,19.6h-6.9l-7.9-31.1h8l4,19.8l5.7-19.8h6L653.2,902.1z"
			/>
		<path class="st4" d="M669.4,874.3c0-1.2,0.4-2.3,1.2-3.1c0.8-0.8,2-1.2,3.4-1.2c1.4,0,2.5,0.4,3.4,1.2c0.8,0.8,1.3,1.8,1.3,3.1
			c0,1.3-0.4,2.3-1.3,3.1c-0.9,0.8-2,1.2-3.4,1.2c-1.4,0-2.5-0.4-3.4-1.2C669.8,876.6,669.4,875.5,669.4,874.3z M678.2,913.4h-8.3
			v-31.1h8.3V913.4z"/>
		<path class="st4" d="M695,874.7v7.6h5.3v6.1H695v15.5c0,1.1,0.2,2,0.7,2.5c0.4,0.5,1.3,0.7,2.5,0.7c0.9,0,1.7-0.1,2.4-0.2v6.3
			c-1.6,0.5-3.3,0.7-5,0.7c-5.8,0-8.8-2.9-8.9-8.8v-16.7h-4.5v-6.1h4.5v-7.6H695z"/>
		<path class="st4" d="M713,885.7c2.2-2.6,5-4,8.3-4c6.7,0,10.2,3.9,10.3,11.7v19.9h-8.3v-19.7c0-1.8-0.4-3.1-1.1-3.9
			c-0.8-0.9-2-1.3-3.8-1.3c-2.4,0-4.2,0.9-5.3,2.8v22.1h-8.3v-44.1h8.3V885.7z"/>
	</g>
	<g class="st3">
		<path class="st5" d="M532.1,949.9v99.1h-30.7l0.5-8.2c-2.1,3.3-4.7,5.8-7.7,7.5c-3.1,1.7-6.6,2.5-10.6,2.5
			c-4.5,0-8.3-0.8-11.3-2.4c-3-1.6-5.2-3.7-6.6-6.3c-1.4-2.6-2.3-5.4-2.7-8.2c-0.3-2.9-0.5-8.5-0.5-17.1v-66.8h30.2v67.4
			c0,7.7,0.2,12.3,0.7,13.7c0.5,1.4,1.8,2.2,3.8,2.2c2.2,0,3.6-0.7,4-2.2c0.4-1.5,0.6-6.3,0.6-14.4v-66.7H532.1z"/>
		<path class="st5" d="M573,928.1v28.6c2.5-2.9,5.3-5,8.3-6.5c3.1-1.4,6.4-2.1,10-2.1c4.1,0,7.7,0.6,10.7,1.9c3,1.3,5.3,3.1,6.9,5.4
			c1.6,2.3,2.5,4.6,2.9,6.9c0.3,2.2,0.5,7,0.5,14.3v44.6c0,7.3-0.5,12.7-1.5,16.2c-1,3.6-3.2,6.6-6.8,9.3c-3.6,2.6-7.8,3.9-12.8,3.9
			c-3.5,0-6.8-0.8-9.9-2.3c-3.1-1.5-5.9-3.9-8.4-7l-1.9,7.5h-28.2V928.1H573z M582.2,978c0-5.1-0.3-8.5-1-10
			c-0.6-1.6-1.9-2.4-3.8-2.4c-1.8,0-3,0.7-3.6,2.1c-0.5,1.4-0.8,4.8-0.8,10.3v42.7c0,5.3,0.3,8.7,0.9,10.2c0.6,1.5,1.9,2.2,3.7,2.2
			c1.9,0,3.1-0.8,3.7-2.3c0.6-1.5,0.9-5.2,0.9-11.1V978z"/>
		<path class="st5" d="M690.6,1001.2h-39v21.4c0,4.5,0.3,7.4,1,8.7c0.6,1.3,1.9,1.9,3.7,1.9c2.3,0,3.8-0.9,4.6-2.6
			c0.8-1.7,1.2-5,1.2-10v-13.1h28.6v7.3c0,6.1-0.4,10.8-1.2,14.1c-0.8,3.3-2.6,6.8-5.4,10.5c-2.8,3.7-6.4,6.5-10.8,8.4
			c-4.4,1.9-9.8,2.8-16.4,2.8c-6.4,0-12-0.9-16.9-2.8c-4.9-1.8-8.7-4.4-11.4-7.6c-2.7-3.2-4.6-6.7-5.6-10.6c-1-3.9-1.6-9.5-1.6-16.8
			v-28.9c0-8.7,1.2-15.5,3.5-20.5c2.3-5,6.2-8.8,11.5-11.5c5.3-2.7,11.4-4,18.4-4c8.5,0,15.4,1.6,20.9,4.8
			c5.5,3.2,9.4,7.5,11.6,12.8c2.2,5.3,3.3,12.8,3.3,22.4V1001.2z M660.4,985v-7.2c0-5.1-0.3-8.4-0.8-9.9c-0.5-1.5-1.7-2.2-3.4-2.2
			c-2.1,0-3.4,0.6-3.9,1.9c-0.5,1.3-0.7,4.7-0.7,10.3v7.2H660.4z"/>
		<path class="st5" d="M731.5,928.1v120.9h-31.1V928.1H731.5z"/>
	</g>
</g>
<g>
	<defs>
		<rect id="SVGID_1_" width="1080" height="1920"/>
	</defs>
	<clipPath id="SVGID_2_">
		<use xlink:href="#SVGID_1_"  style="overflow:visible;"/>
	</clipPath>
	<g class="st8">
		<circle class="st9" cx="1080" cy="1820.2" r="598.7"/>
		<circle class="st9" cx="1080" cy="1820.2" r="543.3"/>
		<circle class="st9" cx="1080" cy="1820.2" r="487.9"/>
		<circle class="st9" cx="1080" cy="1820.2" r="432.4"/>
		<circle class="st9" cx="1080" cy="1820.2" r="377"/>
		<circle class="st9" cx="1080" cy="1820.2" r="321.5"/>
		<circle class="st9" cx="1080" cy="1820.2" r="266.1"/>
		<circle class="st9" cx="1080" cy="1820.2" r="210.7"/>
		<circle class="st9" cx="1080" cy="1820.2" r="155.2"/>
		<circle class="st9" cx="1080" cy="1820.2" r="99.8"/>
	</g>
	<g class="st8">
		<path class="st9" d="M225.1-97.9c-36.7-44-114.3-25.1-146.8,22.1S46,33.1,49.8,90.3s9.6,117.3-14.5,169.3
			c-53.7,115.8-217,126.6-308.7,215.3c-68.7,66.4-88.4,167.2-104.7,261.4"/>
		<path class="st9" d="M321.8-92.1c-17.2-16.7-39.7-25.3-63.5-25.8c-37.4-0.9-76.1,18.3-99.5,48.5c-22.2,29-33.6,64.2-38.5,100.6
			c-3.5,25.6-4.2,51.8-4.1,77.5c0.1,48.7,1.9,99.1-10.6,145.8c-3.5,13-8,25.7-14,38c-32,66.2-94.9,105-163.3,136.3
			c-41.5,18.9-85,35.1-123.8,57.7c-18.6,10.9-36.1,23.2-51.8,37.6c-77,70.3-105.1,180.1-115.4,283.3"/>
		<path class="st9" d="M418.5-86.3c-19.9-16-44.2-25.6-69.9-26.7c-41.1-1.8-82.3,18.3-109.2,50.2C214.1-32.6,199.1,5,191.7,43.7
			c-5.3,27.5-7.6,55.7-9.1,83.5c-2.8,52.7-3.4,107-18.5,157.4c-4.2,14-9.5,27.7-16.1,40.9C112.3,396.5,45.9,442.2-28,475.2
			c-45.2,20.2-93,35.4-136,58.8c-20.5,11.2-39.7,24.2-57.2,39.4c-85.3,74.2-121.7,193-126.1,305.2"/>
		<path class="st9" d="M515.1-80.5c-22.6-15.4-48.6-26-76.3-27.6c-44.8-2.8-88.5,18.3-119,51.8C291.6-24.9,273,15.1,263,56.1
			c-7.2,29.3-11.1,59.5-14.1,89.5c-5.6,56.7-8.7,114.9-26.4,169c-4.9,15-11,29.6-18.3,43.8C165.1,434.3,95,486.9,15.7,521.5
			c-49,21.4-101.1,35.8-148.2,59.9c-22.4,11.4-43.4,25.1-62.6,41.1c-93.7,78.1-138.4,205.8-136.8,327.1"/>
		<path class="st9" d="M611.8-74.7c-25.3-14.7-53.1-26.4-82.7-28.6C480.7-107,434.5-85,400.5-49.8c-31.4,32.6-53.6,75-66.1,118.3
			c-9,31.2-14.5,63.4-19,95.5c-8.5,60.7-14,122.8-34.4,180.6c-5.6,16-12.4,31.6-20.4,46.7C217.8,472,144.1,531.6,59.4,567.9
			c-52.7,22.6-109.1,36.2-160.5,61c-24.3,11.7-47.1,26.1-68,42.9c-102,82-155,218.7-147.5,349"/>
		<path class="st9" d="M708.5-68.9c-28-14.1-57.6-26.7-89-29.5c-52.2-4.7-100.8,18.2-138.5,55.1c-34.5,33.8-60.3,78.6-75.2,124.3
			c-10.9,33.1-17.9,67.3-24,101.6c-11.4,64.7-19.3,130.7-42.3,192.2c-6.4,17-13.9,33.6-22.6,49.5
			c-46.4,85.6-123.7,152.1-213.8,190.1C46.7,638-14,650.9-69.5,676.3c-26.2,12-50.8,27-73.4,44.6
			c-110.3,85.8-171.7,231.6-158.2,370.9"/>
		<path class="st9" d="M805.2-63.1c-30.7-13.5-62.1-27.1-95.4-30.4c-106.7-10.8-196,86.1-232.6,186.9s-40,211.6-79.2,311.4
			C353,519,260.2,613.5,146.8,660.6c-60.2,25-125.2,37-184.9,63.2c-165.1,72.4-271.1,260.4-247.7,439.2"/>
	</g>
</g>
</svg>
