<?xml version="1.0" encoding="utf-8"?>
<!-- Generator: Adobe Illustrator 23.0.1, SVG Export Plug-In . SVG Version: 6.00 Build 0)  -->
<svg version="1.1" id="Layer_1" xmlns="http://www.w3.org/2000/svg" xmlns:xlink="http://www.w3.org/1999/xlink" x="0px" y="0px"
	 viewBox="0 0 512 512" style="enable-background:new 0 0 512 512;" xml:space="preserve">
<style type="text/css">
	.st0{fill:#33CC66;}
	.st1{fill:#333333;}
</style>
<g>
	<path class="st0" d="M64.5,165.3h32.7c21.8,0,36.6,0.9,44.3,2.6c7.7,1.7,14,6,18.9,13c4.9,7,7.3,18.1,7.3,33.5
		c0,14-1.7,23.4-5.2,28.2c-3.4,4.8-10.2,7.7-20.3,8.7c9.2,2.3,15.3,5.4,18.5,9.2c3.1,3.8,5.1,7.4,5.9,10.6
		c0.8,3.2,1.2,12.1,1.2,26.6v47.4h-43v-59.7c0-9.6-0.8-15.6-2.3-17.9c-1.5-2.3-5.4-3.4-11.8-3.4v81H64.5V165.3z M110.7,196v40
		c5.2,0,8.8-0.7,10.9-2.2c2.1-1.4,3.1-6.1,3.1-14v-9.9c0-5.7-1-9.4-3-11.2C119.7,196.9,116.1,196,110.7,196z"/>
	<g>
		<path class="st0" d="M187.1,202.1h18.3v7.3h-26.9v-44.1h8.6V202.1z"/>
		<path class="st0" d="M224.1,210c-4.6,0-8.3-1.4-11.1-4.2c-2.9-2.8-4.3-6.5-4.3-11.2v-0.8c0-3.1,0.6-5.9,1.8-8.4
			c1.2-2.5,2.9-4.4,5.1-5.7c2.2-1.3,4.7-2,7.6-2c4.3,0,7.6,1.3,10,4c2.4,2.7,3.7,6.5,3.7,11.4v3.4h-19.8c0.3,2,1.1,3.7,2.4,4.9
			c1.3,1.2,3.1,1.8,5.1,1.8c3.2,0,5.7-1.2,7.5-3.5l4.1,4.6c-1.2,1.8-2.9,3.1-5.1,4.1S226.7,210,224.1,210z M223.2,184.4
			c-1.6,0-3,0.6-4,1.7c-1,1.1-1.7,2.7-2,4.8h11.5v-0.7c0-1.8-0.5-3.3-1.5-4.3C226.3,184.9,224.9,184.4,223.2,184.4z"/>
		<path class="st0" d="M259.6,209.4c-0.4-0.7-0.7-1.7-0.8-2.8c-2,2.2-4.6,3.4-7.8,3.4c-3,0-5.6-0.9-7.6-2.6c-2-1.8-3-4-3-6.7
			c0-3.3,1.2-5.8,3.7-7.6c2.4-1.8,6-2.7,10.6-2.7h3.8v-1.8c0-1.4-0.4-2.6-1.1-3.4c-0.7-0.9-1.9-1.3-3.5-1.3c-1.4,0-2.5,0.3-3.3,1
			c-0.8,0.7-1.2,1.6-1.2,2.8h-8.3c0-1.8,0.6-3.5,1.7-5c1.1-1.5,2.7-2.7,4.7-3.6c2-0.9,4.3-1.3,6.8-1.3c3.8,0,6.9,1,9.1,2.9
			c2.2,1.9,3.4,4.6,3.4,8.1v13.5c0,2.9,0.4,5.2,1.2,6.7v0.5H259.6z M252.8,203.6c1.2,0,2.4-0.3,3.4-0.8c1-0.5,1.8-1.3,2.3-2.2v-5.3
			h-3.1c-4.2,0-6.4,1.4-6.6,4.3l0,0.5c0,1,0.4,1.9,1.1,2.6C250.5,203.3,251.5,203.6,252.8,203.6z"/>
		<path class="st0" d="M290.6,186.1c-1.1-0.2-2.1-0.2-3-0.2c-3.1,0-5.2,1.1-6.2,3.2v20.3h-8.3v-31.1h7.8l0.2,3.7
			c1.7-2.9,4-4.3,6.9-4.3c0.9,0,1.8,0.1,2.6,0.4L290.6,186.1z"/>
		<path class="st0" d="M302.2,178.3l0.3,3.6c2.2-2.8,5.2-4.2,8.9-4.2c3.3,0,5.7,1,7.4,2.9c1.6,1.9,2.4,4.8,2.5,8.7v20.1H313v-19.9
			c0-1.8-0.4-3-1.1-3.8c-0.8-0.8-2-1.2-3.8-1.2c-2.3,0-4.1,1-5.3,3v21.9h-8.3v-31.1H302.2z"/>
		<path class="st0" d="M369.2,198.1l4.1-19.8h8l-7.9,31.1h-7l-5.9-19.6l-5.9,19.6h-6.9l-7.9-31.1h8l4,19.8l5.7-19.8h6L369.2,198.1z"
			/>
		<path class="st0" d="M385.4,170.3c0-1.2,0.4-2.3,1.2-3.1c0.8-0.8,2-1.2,3.4-1.2c1.4,0,2.5,0.4,3.4,1.2c0.8,0.8,1.3,1.8,1.3,3.1
			c0,1.3-0.4,2.3-1.3,3.1c-0.9,0.8-2,1.2-3.4,1.2c-1.4,0-2.5-0.4-3.4-1.2C385.8,172.6,385.4,171.5,385.4,170.3z M394.2,209.4h-8.3
			v-31.1h8.3V209.4z"/>
		<path class="st0" d="M411,170.7v7.6h5.3v6.1H411v15.5c0,1.1,0.2,2,0.7,2.5c0.4,0.5,1.3,0.7,2.5,0.7c0.9,0,1.7-0.1,2.4-0.2v6.3
			c-1.6,0.5-3.3,0.7-5,0.7c-5.8,0-8.8-2.9-8.9-8.8v-16.7h-4.5v-6.1h4.5v-7.6H411z"/>
		<path class="st0" d="M429,181.7c2.2-2.6,5-4,8.3-4c6.7,0,10.2,3.9,10.3,11.7v19.9h-8.3v-19.7c0-1.8-0.4-3.1-1.1-3.9
			c-0.8-0.9-2-1.3-3.8-1.3c-2.4,0-4.2,0.9-5.3,2.8v22.1h-8.3v-44.1h8.3V181.7z"/>
	</g>
	<g>
		<path class="st1" d="M248.1,245.9v99.1h-30.7l0.5-8.2c-2.1,3.3-4.7,5.8-7.7,7.5c-3.1,1.7-6.6,2.5-10.6,2.5
			c-4.5,0-8.3-0.8-11.3-2.4c-3-1.6-5.2-3.7-6.6-6.3c-1.4-2.6-2.3-5.4-2.7-8.2c-0.3-2.9-0.5-8.5-0.5-17.1v-66.8h30.2v67.4
			c0,7.7,0.2,12.3,0.7,13.7c0.5,1.4,1.8,2.2,3.8,2.2c2.2,0,3.6-0.7,4-2.2c0.4-1.5,0.6-6.3,0.6-14.4v-66.7H248.1z"/>
		<path class="st1" d="M289,224.1v28.6c2.5-2.9,5.3-5,8.3-6.5c3.1-1.4,6.4-2.1,10-2.1c4.1,0,7.7,0.6,10.7,1.9c3,1.3,5.3,3.1,6.9,5.4
			c1.6,2.3,2.5,4.6,2.9,6.9c0.3,2.2,0.5,7,0.5,14.3v44.6c0,7.3-0.5,12.7-1.5,16.2c-1,3.6-3.2,6.6-6.8,9.3c-3.6,2.6-7.8,3.9-12.8,3.9
			c-3.5,0-6.8-0.8-9.9-2.3c-3.1-1.5-5.9-3.9-8.4-7l-1.9,7.5h-28.2V224.1H289z M298.2,274c0-5.1-0.3-8.5-1-10
			c-0.6-1.6-1.9-2.4-3.8-2.4c-1.8,0-3,0.7-3.6,2.1c-0.5,1.4-0.8,4.8-0.8,10.3v42.7c0,5.3,0.3,8.7,0.9,10.2c0.6,1.5,1.9,2.2,3.7,2.2
			c1.9,0,3.1-0.8,3.7-2.3c0.6-1.5,0.9-5.2,0.9-11.1V274z"/>
		<path class="st1" d="M406.6,297.2h-39v21.4c0,4.5,0.3,7.4,1,8.7c0.6,1.3,1.9,1.9,3.7,1.9c2.3,0,3.8-0.9,4.6-2.6
			c0.8-1.7,1.2-5,1.2-10v-13.1h28.6v7.3c0,6.1-0.4,10.8-1.2,14.1c-0.8,3.3-2.6,6.8-5.4,10.5c-2.8,3.7-6.4,6.5-10.8,8.4
			c-4.4,1.9-9.8,2.8-16.4,2.8c-6.4,0-12-0.9-16.9-2.8c-4.9-1.8-8.7-4.4-11.4-7.6c-2.7-3.2-4.6-6.7-5.6-10.6c-1-3.9-1.6-9.5-1.6-16.8
			v-28.9c0-8.7,1.2-15.5,3.5-20.5c2.3-5,6.2-8.8,11.5-11.5c5.3-2.7,11.4-4,18.4-4c8.5,0,15.4,1.6,20.9,4.8
			c5.5,3.2,9.4,7.5,11.6,12.8c2.2,5.3,3.3,12.8,3.3,22.4V297.2z M376.4,281v-7.2c0-5.1-0.3-8.4-0.8-9.9c-0.5-1.5-1.7-2.2-3.4-2.2
			c-2.1,0-3.4,0.6-3.9,1.9c-0.5,1.3-0.7,4.7-0.7,10.3v7.2H376.4z"/>
		<path class="st1" d="M447.5,224.1v120.9h-31.1V224.1H447.5z"/>
	</g>
</g>
</svg>
